<?xml version="1.0" encoding="utf-8"?>
<!-- Generator: Adobe Illustrator 16.0.0, SVG Export Plug-In . SVG Version: 6.00 Build 0)  -->
<!DOCTYPE svg PUBLIC "-//W3C//DTD SVG 1.1//EN" "http://www.w3.org/Graphics/SVG/1.1/DTD/svg11.dtd">
<svg version="1.1" id="Livello_1" xmlns="http://www.w3.org/2000/svg" xmlns:xlink="http://www.w3.org/1999/xlink" x="0px" y="0px"
	 width="800px" height="800px" viewBox="0 0 800 800" enable-background="new 0 0 800 800" xml:space="preserve">
<g>
	<g>
		<linearGradient id="SVGID_1_" gradientUnits="userSpaceOnUse" x1="596.0303" y1="57.0928" x2="203.2839" y2="737.3494">
			<stop  offset="0" style="stop-color:#5C51A2"/>
			<stop  offset="0.3494" style="stop-color:#CA2785"/>
			<stop  offset="0.6897" style="stop-color:#F36F48"/>
			<stop  offset="1" style="stop-color:#F7944F"/>
		</linearGradient>
		<path fill-rule="evenodd" clip-rule="evenodd" fill="url(#SVGID_1_)" d="M401.087,4.342
			c216.088,0.137,391.632,177.988,391.32,396.48c-0.308,213.907-178.769,389.391-395.743,389.15
			C182.427,789.736,6.581,611.581,6.771,394.968C6.957,180.363,184.771,4.217,401.087,4.342z M145.086,398.19
			c-0.054,0-0.108,0-0.162,0c0,35.878-0.595,71.761,0.116,107.621c1.679,84.596,61.94,146.598,146.93,148.644
			c71.709,1.74,143.521,1.728,215.224,0c84.974-2.046,145.703-64.025,146.839-148.593c0.978-72.702,1.263-145.458-0.25-218.145
			c-1.693-81.529-63.922-142.656-145.076-143.605c-72.704-0.858-145.437-0.847-218.149-0.006
			c-81.057,0.943-142.801,62.122-145.281,143.561C144.154,324.475,145.086,361.347,145.086,398.19z"/>
		<path fill-rule="evenodd" clip-rule="evenodd" fill="#FFFFFF" d="M145.086,398.19c0-36.843-0.933-73.715,0.191-110.524
			c2.48-81.439,64.224-142.617,145.281-143.561c72.712-0.841,145.445-0.853,218.149,0.006
			c81.154,0.949,143.383,62.076,145.076,143.605c1.513,72.687,1.228,145.443,0.25,218.145
			c-1.136,84.567-61.865,146.547-146.839,148.593c-71.703,1.728-143.515,1.74-215.224,0c-84.99-2.046-145.251-64.048-146.93-148.644
			c-0.711-35.86-0.116-71.743-0.116-107.621C144.979,398.19,145.032,398.19,145.086,398.19z M606.764,402.413
			c0-35.826,0.232-71.652-0.051-107.478c-0.484-60.627-38.016-101.005-98.803-102.347c-72.589-1.608-145.271-1.727-217.848,0.085
			c-59.422,1.489-97.169,41.799-97.542,100.557c-0.455,71.652-0.516,143.317,0.029,214.963
			c0.435,57.105,38.222,97.728,95.814,99.194c74.511,1.899,149.152,2.047,223.652-0.091c57.229-1.646,94.037-42.781,94.675-100.305
			C607.07,472.139,606.764,437.273,606.764,402.413z"/>
		<linearGradient id="SVGID_2_" gradientUnits="userSpaceOnUse" x1="523.6836" y1="185.0273" x2="275.3018" y2="615.2371">
			<stop  offset="0" style="stop-color:#5C51A2"/>
			<stop  offset="0.3494" style="stop-color:#CA2785"/>
			<stop  offset="0.6897" style="stop-color:#F36F48"/>
			<stop  offset="1" style="stop-color:#F7944F"/>
		</linearGradient>
		<path fill-rule="evenodd" clip-rule="evenodd" fill="url(#SVGID_2_)" d="M606.764,402.413c0,34.86,0.307,69.726-0.074,104.579
			c-0.638,57.523-37.446,98.658-94.675,100.305c-74.5,2.138-149.141,1.99-223.652,0.091c-57.592-1.467-95.379-42.089-95.814-99.194
			c-0.545-71.646-0.484-143.311-0.029-214.963c0.373-58.758,38.12-99.067,97.542-100.557c72.578-1.812,145.259-1.693,217.848-0.085
			c60.787,1.342,98.318,41.72,98.803,102.347C606.996,330.761,606.764,366.587,606.764,402.413z M267.867,397.822
			c-0.989,74.176,56.913,134.393,130.14,135.358c71.937,0.951,131.859-57.183,133.251-129.271
			c1.461-75.693-57.201-136.696-131.529-136.787C327.752,267.036,268.833,325.437,267.867,397.822z M544.198,227.511
			c-4.496-0.204-8.997-0.409-13.497-0.614c-8.293,11.878-21.346,22.875-23.733,35.838c-3.462,18.771,11.446,33.331,29.37,29.995
			c11.436-2.131,27.438-17.64,28.33-28.245C565.651,252.817,551.665,239.889,544.198,227.511z"/>
		<path fill-rule="evenodd" clip-rule="evenodd" fill="#FFFFFF" d="M267.867,397.822c0.966-72.385,59.885-130.786,131.862-130.7
			c74.328,0.091,132.99,61.093,131.529,136.787c-1.393,72.089-61.314,130.223-133.251,129.271
			C324.78,532.215,266.878,471.998,267.867,397.822z M314.763,400.527c0.282,47.249,37.449,84.558,84.516,84.837
			c47.949,0.284,86.037-38.685,85.133-87.111c-0.876-46.896-39.293-84.189-85.962-83.427
			C351.496,315.587,314.484,353.493,314.763,400.527z"/>
		<path fill-rule="evenodd" clip-rule="evenodd" fill="#FFFFFF" d="M544.198,227.511c7.467,12.378,21.453,25.307,20.47,36.974
			c-0.892,10.605-16.895,26.113-28.33,28.245c-17.924,3.336-32.832-11.224-29.37-29.995c2.388-12.964,15.44-23.96,23.733-35.838
			C535.201,227.102,539.702,227.307,544.198,227.511z"/>
		<linearGradient id="SVGID_3_" gradientUnits="userSpaceOnUse" x1="442.2363" y1="326.2412" x2="356.9333" y2="473.9903">
			<stop  offset="0" style="stop-color:#5C51A2"/>
			<stop  offset="0.3494" style="stop-color:#CA2785"/>
			<stop  offset="0.6897" style="stop-color:#F36F48"/>
			<stop  offset="1" style="stop-color:#F7944F"/>
		</linearGradient>
		<path fill-rule="evenodd" clip-rule="evenodd" fill="url(#SVGID_3_)" d="M314.763,400.527
			c-0.279-47.034,36.733-84.939,83.687-85.701c46.669-0.762,85.086,36.531,85.962,83.427c0.904,48.427-37.184,87.396-85.133,87.111
			C352.212,485.085,315.045,447.775,314.763,400.527z"/>
	</g>
	<circle fill-rule="evenodd" clip-rule="evenodd" fill="#FFFFFF" cx="535.591" cy="260.052" r="33.155"/>
</g>
</svg>
