<?xml version="1.0" encoding="utf-8"?>
<!-- Generator: Adobe Illustrator 16.0.0, SVG Export Plug-In . SVG Version: 6.00 Build 0)  -->
<!DOCTYPE svg PUBLIC "-//W3C//DTD SVG 1.1//EN" "http://www.w3.org/Graphics/SVG/1.1/DTD/svg11.dtd">
<svg version="1.1" id="Livello_1" xmlns="http://www.w3.org/2000/svg" xmlns:xlink="http://www.w3.org/1999/xlink" x="0px" y="0px"
	 width="800px" height="800px" viewBox="0 0 800 800" enable-background="new 0 0 800 800" xml:space="preserve">
<g>
	<path fill="#010101" d="M913.895,265.086c0,12.389-10.044,22.423-22.424,22.423c-12.39,0-22.428-10.037-22.428-22.423
		c0-12.386,10.039-22.425,22.428-22.425C903.851,242.661,913.895,252.7,913.895,265.086z"/>
	<path fill="#FFFFFF" d="M891.462,281.44c-2.158-3.395-4.179-6.56-6.178-9.747c-1.242-1.992-2.478-3.99-3.644-6.027
		c-4.285-7.482,0.903-16.774,9.516-16.936c4.273-0.08,7.694,1.762,9.916,5.458c2.205,3.67,2.392,7.554,0.211,11.272
		C898.168,270.782,894.832,275.979,891.462,281.44z M891.422,255.049c-2.756-0.006-4.976,2.196-4.995,4.954
		c-0.021,2.776,2.267,5.074,5.026,5.038c2.738-0.028,4.959-2.276,4.95-5.019C896.396,257.268,894.18,255.057,891.422,255.049z"/>
</g>
<g>
	<path fill="#010101" d="M791.944,402.884c0,216.498-175.48,392.014-391.962,392.014c-216.514,0-391.927-175.516-391.927-392.014
		c0-216.463,175.413-391.944,391.927-391.944C616.464,10.939,791.944,186.404,791.944,402.884z"/>
	<path fill="#FFFFFF" d="M495.385,660.553c-39.972-0.994-76.583-12.821-109.594-33.972
		c-94.545-60.54-165.78-141.827-209.282-245.585c-20.054-47.684-23.104-97.236-2.811-146.565c15.083-36.68,43.982-61.07,74.8-83.233
		c12.787-9.221,27.87-7.542,39.422,3.531c28.453,27.081,49.364,59.544,61.087,96.859c5.656,17.945,0.823,35.446-13.918,48.592
		c-10.421,9.222-21.048,18.118-31.983,26.688c-16.489,12.787-22.625,26.636-15.872,46.639c5.416,15.854,12.787,31.59,21.939,45.566
		c20.876,31.299,45.387,59.684,74.902,83.173c11.073,8.811,23.722,16.181,36.612,21.666c15.939,6.753,30.817,2.811,43.398-9.77
		c9.77-9.873,20.156-19.231,30.75-28.187c16.42-13.885,35.273-16.216,54.059-6.686c32.773,16.806,60.197,40.597,82.514,69.631
		c11.758,15.393,11.622,30.75-0.651,43.4c-27.458,28.623-57.009,54.745-97.699,62.938
		C520.65,657.706,507.966,658.804,495.385,660.553z"/>
</g>
<g>
	<path fill="#010101" d="M914.289,325.395c0,12.603-10.217,22.822-22.822,22.822c-12.604,0-22.818-10.219-22.818-22.822
		c0-12.604,10.216-22.818,22.818-22.818C904.072,302.577,914.289,312.792,914.289,325.395z"/>
	<g>
		<path fill="#FFFFFF" d="M888.621,325.99c1.953,1.997,3.852,1.817,5.725,0.024c3.594,2.671,7.121,5.289,10.701,7.943
			c-1.432,0.68-25.58,0.723-27.06,0.09c0.083-0.117,0.14-0.26,0.243-0.33C881.648,331.166,885.068,328.625,888.621,325.99z"/>
		<path fill="#FFFFFF" d="M904.721,316.296c-3.35,2.488-6.373,4.742-9.396,6.986c-0.934,0.7-1.824,1.46-2.828,2.042
			c-0.469,0.273-1.349,0.479-1.699,0.227c-4.129-2.941-8.19-5.986-12.614-9.255C887.162,316.296,895.699,316.296,904.721,316.296z"
			/>
		<path fill="#FFFFFF" d="M895.746,325.013c3.498-2.597,6.885-5.101,10.666-7.896c0.545,5.418,0.221,10.483,0.25,15.538
			c-0.146,0.041-0.289,0.08-0.438,0.123C902.771,330.215,899.318,327.658,895.746,325.013z"/>
		<path fill="#FFFFFF" d="M876.31,333.072c-0.067-5.467-0.247-10.528,0.106-15.58c0.168-0.023,0.334-0.06,0.498-0.086
			c3.389,2.5,6.768,5.007,10.271,7.606C883.612,327.658,880.16,330.215,876.31,333.072z"/>
	</g>
</g>
</svg>
