<?xml version="1.0" encoding="utf-8"?>
<!-- Generator: Adobe Illustrator 16.0.0, SVG Export Plug-In . SVG Version: 6.00 Build 0)  -->
<!DOCTYPE svg PUBLIC "-//W3C//DTD SVG 1.1//EN" "http://www.w3.org/Graphics/SVG/1.1/DTD/svg11.dtd">
<svg version="1.1" id="Livello_1" xmlns="http://www.w3.org/2000/svg" xmlns:xlink="http://www.w3.org/1999/xlink" x="0px" y="0px"
	 width="800px" height="800px" viewBox="0 0 800 800" enable-background="new 0 0 800 800" xml:space="preserve">
<path fill-rule="evenodd" clip-rule="evenodd" fill="#3B5A98" d="M4.15,397.863C4.365,178.445,180.294,3.176,400.135,3.358
	c216.378,0.18,394.396,177.438,394.338,392.656c-0.057,223.094-177.093,398.403-401.905,397.982
	C179.343,793.594,3.938,614.705,4.15,397.863z M438.779,551.251c0-20.759-0.592-41.54,0.17-62.27
	c0.734-19.849-8.904-46.26,4.104-57.622c11.172-9.76,36.93-3.102,56.239-3.207c37.555-0.203,37.555-0.06,37.555-37.99
	c0-44.008,0-44.008-43.819-44.008c-56.657,0-56.657,0-52.635-56.635c1.63-22.917,11.999-32.367,33.899-26.118
	c15.24,4.347,29.996,1.924,44.886,3.415c14.015,1.402,18.09-5.359,17.661-18.378c-0.638-19.351-0.743-38.778,0.283-58.103
	c0.656-12.301-4.047-15.294-15.45-14.795c-20.031,0.875-40.124,0.306-60.188,0.533c-51.082,0.578-89.183,27.945-108.044,75.597
	c-9.28,23.446-8.343,47.603-7.655,71.606c0.484,17.009-2.16,24.855-22.086,23.505c-20.21-1.371-47.785-9.574-59.392,3.653
	c-12.275,13.99-2.459,41.054-3.834,62.344c-0.736,11.398,2.96,16.247,15.16,15.553c16.555-0.944,33.316,0.983,49.775-0.576
	c17.045-1.615,20.499,5.008,20.304,20.847c-0.833,67.801,0.083,135.625-0.7,203.426c-0.168,14.688,3.976,19.205,18.521,18.306
	c19.989-1.233,40.137-0.913,60.169-0.082c11.776,0.487,15.539-3.397,15.312-15.215C438.342,620.455,438.775,585.85,438.779,551.251z
	"/>
</svg>
