<?xml version="1.0" encoding="utf-8"?>
<!-- Generator: Adobe Illustrator 16.0.0, SVG Export Plug-In . SVG Version: 6.00 Build 0)  -->
<!DOCTYPE svg PUBLIC "-//W3C//DTD SVG 1.1//EN" "http://www.w3.org/Graphics/SVG/1.1/DTD/svg11.dtd">
<svg version="1.1" id="Livello_1" xmlns="http://www.w3.org/2000/svg" xmlns:xlink="http://www.w3.org/1999/xlink" x="0px" y="0px"
	 width="800px" height="800px" viewBox="0 0 800 800" enable-background="new 0 0 800 800" xml:space="preserve">
<g>
	<path fill="#010101" d="M791.181,397.97c0,216.044-175.132,391.21-391.227,391.21c-216.036,0-391.135-175.166-391.135-391.21
		c0-216.045,175.132-391.144,391.135-391.144C616.049,6.826,791.181,181.958,791.181,397.97z"/>
	<g>
		<path fill="#FFFFFF" d="M351.208,408.181c33.446,34.216,65.988,31.136,98.096,0.402c61.619,45.801,122.082,90.663,183.45,136.161
			c-24.54,11.65-438.475,12.387-463.835,1.54c1.406-2.009,2.377-4.453,4.152-5.658C231.66,496.902,290.274,453.345,351.208,408.181z
			"/>
		<path fill="#FFFFFF" d="M627.164,242.021c-57.418,42.653-109.246,81.289-161.089,119.757
			c-16.002,11.986-31.269,25.009-48.444,34.987c-8.067,4.687-23.134,8.202-29.127,3.882
			c-70.776-50.419-140.414-102.614-216.237-158.625C326.164,242.021,472.504,242.021,627.164,242.021z"/>
		<path fill="#FFFFFF" d="M473.342,391.44c59.944-44.528,117.998-87.449,182.815-135.358c9.342,92.873,3.783,179.685,4.284,266.33
			c-2.509,0.704-4.953,1.373-7.498,2.11C593.75,480.598,534.559,436.772,473.342,391.44z"/>
		<path fill="#FFFFFF" d="M140.16,529.578c-1.155-93.71-4.252-180.456,1.825-267.068c2.862-0.402,5.725-1.004,8.537-1.473
			c58.087,42.854,115.982,85.842,176.044,130.403C265.332,436.772,206.165,480.598,140.16,529.578z"/>
	</g>
</g>
</svg>
