<?xml version="1.0" encoding="utf-8"?>
<!-- Generator: Adobe Illustrator 16.0.0, SVG Export Plug-In . SVG Version: 6.00 Build 0)  -->
<!DOCTYPE svg PUBLIC "-//W3C//DTD SVG 1.1//EN" "http://www.w3.org/Graphics/SVG/1.1/DTD/svg11.dtd">
<svg version="1.1" id="Livello_1" xmlns="http://www.w3.org/2000/svg" xmlns:xlink="http://www.w3.org/1999/xlink" x="0px" y="0px"
	 width="800px" height="800px" viewBox="0 0 800 800" enable-background="new 0 0 800 800" xml:space="preserve">
<g>
	<path fill="#010101" d="M793.329,398.033c0,217.63-176.457,393.929-393.948,393.929c-217.688,0-394.047-176.339-394.047-393.929
		c0-217.609,176.398-393.987,394.047-393.987C616.872,4.046,793.329,180.424,793.329,398.033z"/>
	<path fill="#FFFFFF" d="M399.223,685.329c-37.914-59.635-73.418-115.242-108.528-171.245c-21.84-34.991-43.521-70.1-64.019-105.86
		c-75.275-131.475,15.876-294.702,167.176-297.545c75.078-1.421,135.186,30.963,174.206,95.891
		c38.745,64.453,42.022,132.698,3.714,198.02C517.033,498.091,458.425,589.399,399.223,685.329z M398.512,221.695
		c-48.418-0.119-87.399,38.585-87.755,87.043c-0.355,48.775,39.85,89.137,88.308,88.506c48.103-0.514,87.123-40.007,86.965-88.189
		C485.912,260.675,446.971,221.813,398.512,221.695z"/>
</g>
</svg>
