<?xml version="1.0" encoding="utf-8"?>
<!-- Generator: Adobe Illustrator 16.0.0, SVG Export Plug-In . SVG Version: 6.00 Build 0)  -->
<!DOCTYPE svg PUBLIC "-//W3C//DTD SVG 1.1//EN" "http://www.w3.org/Graphics/SVG/1.1/DTD/svg11.dtd">
<svg version="1.1" id="Livello_1" xmlns="http://www.w3.org/2000/svg" xmlns:xlink="http://www.w3.org/1999/xlink" x="0px" y="0px"
	 width="800px" height="800px" viewBox="0 0 800 800" enable-background="new 0 0 800 800" xml:space="preserve">
<g>
	<g>
		<text transform="matrix(0.991 0 0 1 1.1587 758.2246)" fill="#010101" font-family="'AmericanTypewriter'" font-size="204.8792">TATTOO</text>
	</g>
	<g>
		<path fill="#010101" d="M30.292,7.013h189.201l79.711,228.702h1.482l-59.578,328.532H219.5L63.815,103.115
			c-3.714-11.174-7.444-22.345-13.406-32.037c-6.72-11.162-9.701-20.101-22.349-20.858C19.117,49.483-1,47.993-1,30.115
			C-1.017,7.013,21.324,7.013,30.292,7.013z"/>
		<path fill="#010101" d="M104.783,446.539c11.907,93.118,59.578,64.065,59.578,96.099c0,23.091-30.534,21.608-38.736,21.608H40.692
			c-8.185,0-38.736,1.482-38.736-21.608c0-32.05,47.679-2.98,59.603-96.099H104.783z"/>
		<path fill="#010101" d="M638.794,521.03c60.344-8.201,94.608-60.344,110.246-129.623c3.723-16.395,12.665-20.85,28.294-20.85
			c17.146,0,18.644,14.147,18.644,28.287v165.402H638.786V521.03H638.794z"/>
		<path fill="#010101" d="M577.059,521.03c-26.055-8.201-25.313-12.665-25.313-40.234V90.451c0-27.566-0.741-32.029,25.313-40.231
			c9.676-2.977,16.379-9.684,16.379-20.105c0-21.612-24.573-23.103-27.554-23.103H478.35c0.395,9.408,1.104,25.903,2.635,37.052
			c0.584,4.402,5.023,11.517,8.235,11.829c38.801,3.797,26.227,31.646,28.022,54.793c-6.251,0.445-10.54,1.055-14.791,1.038
			c-32.699-0.161-65.448-0.441-100.8-0.7c1.384-21.192-14.641-48.292,24.556-54.319c4.035-0.643,8.639-10.393,9.52-16.429
			c1.449-9.783,2.042-24.679,3.162-33.248h-69.674v473.783c0,27.587,0.749,32.05-25.33,40.235
			c-9.676,2.981-16.379,9.684-16.379,20.108c0,21.609,24.572,23.107,27.57,23.107h210.808c2.98,0,27.554-1.498,27.554-23.107
			C593.438,530.715,586.734,524.011,577.059,521.03z M402.665,135.713c0-5.658,4.693-10.244,10.449-10.244h94.237
			c5.805,0,10.475,4.578,10.475,10.244v120.432c0,5.658-4.678,10.244-10.475,10.244h-94.237c-5.765,0-10.449-4.586-10.449-10.244
			V135.713z M494.464,307.258c-6.818,0.156-13.569,2.239-20.372,3.442c-0.971,38.974-1.598,77.966-3.161,116.916
			c-0.379,10.096-3.698,20.093-8.96,30.122c2.577-23.88-32.676-43.8-4.093-71.444c5.287-5.122,2.989-27.215-3.524-33.614
			c-14.518-14.254-11.199-27.891-7.205-43.29c-17.104-5.715-47.069,7.987-44.304-29.382c38.432,0.973,76.221,1.927,115.929,2.932
			C521.194,297.583,513.923,306.854,494.464,307.258z"/>
	</g>
</g>
</svg>
